<?xml version="1.0" encoding="UTF-8"?>
<svg width="30px" height="36px" viewBox="0 0 30 36" version="1.1" xmlns="http://www.w3.org/2000/svg" xmlns:xlink="http://www.w3.org/1999/xlink">
    <!-- Generator: Sketch Beta 43.1 (39012) - http://www.bohemiancoding.com/sketch -->
    <title>Group 2</title>
    <desc>Created with Sketch Beta.</desc>
    <defs>
        <linearGradient x1="50%" y1="0%" x2="50%" y2="100%" id="linearGradient-1">
            <stop stop-color="#FFFFFF" offset="0%"></stop>
            <stop stop-color="#F4F4F4" offset="100%"></stop>
        </linearGradient>
        <path d="M19,0 L1.99124431,0 C0.899897516,0 -1.77635684e-15,0.895394863 -1.77635684e-15,1.9999204 L-1.77635684e-15,32.0000796 C-1.77635684e-15,33.1080589 0.891510444,34 1.99124431,34 L26.0087557,34 C27.1001025,34 28,33.1046051 28,32.0000796 L28,10 L19,10 L19,6.66133815e-16 Z" id="path-2"></path>
        <filter x="-7.1%" y="-17.6%" width="125.0%" height="126.5%" filterUnits="objectBoundingBox" id="filter-3">
            <feOffset dx="0" dy="1" in="SourceAlpha" result="shadowOffsetOuter1"></feOffset>
            <feGaussianBlur stdDeviation="0.5" in="shadowOffsetOuter1" result="shadowBlurOuter1"></feGaussianBlur>
            <feComposite in="shadowBlurOuter1" in2="SourceAlpha" operator="out" result="shadowBlurOuter1"></feComposite>
            <feColorMatrix values="0 0 0 0 0.9375   0 0 0 0 0.9375   0 0 0 0 0.9375  0 0 0 0.5 0" type="matrix" in="shadowBlurOuter1"></feColorMatrix>
        </filter>
        <linearGradient x1="50%" y1="0%" x2="50%" y2="100%" id="linearGradient-4">
            <stop stop-color="#FFFFFF" offset="0%"></stop>
            <stop stop-color="#FAFAFA" offset="100%"></stop>
        </linearGradient>
        <polygon id="path-5" points="17.9928436 0.00238037109 18.9984131 0.00410461426 27.9999414 10.0130031 28 11 18 11"></polygon>
        <filter x="-20.0%" y="-9.1%" width="140.0%" height="136.4%" filterUnits="objectBoundingBox" id="filter-6">
            <feOffset dx="0" dy="1" in="SourceAlpha" result="shadowOffsetOuter1"></feOffset>
            <feGaussianBlur stdDeviation="0.5" in="shadowOffsetOuter1" result="shadowBlurOuter1"></feGaussianBlur>
            <feComposite in="shadowBlurOuter1" in2="SourceAlpha" operator="out" result="shadowBlurOuter1"></feComposite>
            <feColorMatrix values="0 0 0 0 0.937254902   0 0 0 0 0.937254902   0 0 0 0 0.937254902  0 0 0 0.5 0" type="matrix" in="shadowBlurOuter1"></feColorMatrix>
        </filter>
    </defs>
    <g id="图标" stroke="none" stroke-width="1" fill="none" fill-rule="evenodd">
        <g id="GIF" transform="translate(-9.000000, -7.000000)">
            <g id="Group-2" transform="translate(10.000000, 7.000000)">
                <g id="Combined-Shape">
                    <use fill="black" fill-opacity="1" filter="url(#filter-3)" xlink:href="#path-2"></use>
                    <use fill="url(#linearGradient-1)" fill-rule="evenodd" xlink:href="#path-2"></use>
                    <path stroke="#CCCCCC" stroke-width="1" d="M18.5,0.5 L18.5,10 L18.5,10.5 L19,10.5 L27.5,10.5 L27.5,32.0000796 C27.5,32.8257232 26.8266952,33.5 26.0087557,33.5 L1.99124431,33.5 C1.16681741,33.5 0.5,32.8310761 0.5,32.0000796 L0.5,1.9999204 C0.5,1.17427675 1.17330482,0.5 1.99124431,0.5 L18.5,0.5 Z"></path>
                </g>
                <g id="Group" transform="translate(3.000000, 4.000000)" fill="#D8D8D8">
                    <rect id="Rectangle-4" x="0" y="2" width="11" height="1"></rect>
                    <rect id="Rectangle-4-Copy-6" x="12" y="2" width="2" height="1"></rect>
                    <rect id="Rectangle-4-Copy-5" x="0" y="0" width="6" height="1"></rect>
                    <rect id="Rectangle-4-Copy" x="0" y="4" width="5" height="1"></rect>
                    <rect id="Rectangle-4-Copy-3" x="7" y="4" width="5" height="1"></rect>
                    <rect id="Rectangle-4-Copy-4" x="13" y="4" width="5" height="1"></rect>
                    <rect id="Rectangle-4-Copy-2" x="0" y="6" width="11" height="1"></rect>
                    <rect id="Rectangle-4-Copy-7" x="0" y="8" width="7" height="1"></rect>
                    <rect id="Rectangle-4-Copy-8" x="9" y="8" width="7" height="1"></rect>
                    <rect id="Rectangle-4-Copy-9" x="0" y="10" width="5" height="1"></rect>
                </g>
                <path d="M9.05761719,24.3681641 L9.05761719,23.1621094 L12.1728516,23.1621094 L12.1728516,26.0136719 C11.8701157,26.3066421 11.4314807,26.5646148 10.8569336,26.7875977 C10.2823865,27.0105805 9.70052378,27.1220703 9.11132812,27.1220703 C8.36262646,27.1220703 7.70996372,26.9650081 7.15332031,26.6508789 C6.5966769,26.3367497 6.17838682,25.8875355 5.8984375,25.3032227 C5.61848818,24.7189098 5.47851562,24.0833368 5.47851562,23.3964844 C5.47851562,22.6510379 5.63476406,21.9886097 5.94726562,21.4091797 C6.25976719,20.8297497 6.71711938,20.3854182 7.31933594,20.0761719 C7.77832261,19.8385405 8.34960596,19.7197266 9.03320312,19.7197266 C9.92187944,19.7197266 10.6160457,19.9060854 11.1157227,20.2788086 C11.6153996,20.6515318 11.9368482,21.1666634 12.0800781,21.8242188 L10.6445312,22.0927734 C10.5436193,21.7412092 10.3540053,21.4637054 10.0756836,21.2602539 C9.79736189,21.0568024 9.44987187,20.9550781 9.03320312,20.9550781 C8.40168955,20.9550781 7.89957869,21.1552714 7.52685547,21.5556641 C7.15413225,21.9560567 6.96777344,22.5501263 6.96777344,23.3378906 C6.96777344,24.1875042 7.15657363,24.8247049 7.53417969,25.2495117 C7.91178574,25.6743185 8.40657246,25.8867188 9.01855469,25.8867188 C9.32129058,25.8867188 9.62483572,25.8273118 9.92919922,25.7084961 C10.2335627,25.5896804 10.4947906,25.4456389 10.7128906,25.2763672 L10.7128906,24.3681641 L9.05761719,24.3681641 Z M13.4619141,27 L13.4619141,19.8417969 L14.9072266,19.8417969 L14.9072266,27 L13.4619141,27 Z M16.2939453,27 L16.2939453,19.8417969 L21.2011719,19.8417969 L21.2011719,21.0527344 L17.7392578,21.0527344 L17.7392578,22.7470703 L20.7275391,22.7470703 L20.7275391,23.9580078 L17.7392578,23.9580078 L17.7392578,27 L16.2939453,27 Z" id="GIF" fill="#999999"></path>
                <g id="Rectangle-2">
                    <use fill="black" fill-opacity="1" filter="url(#filter-6)" xlink:href="#path-5"></use>
                    <use fill="url(#linearGradient-4)" fill-rule="evenodd" xlink:href="#path-5"></use>
                    <path stroke="#CCCCCC" stroke-width="1" d="M18.4931697,0.503239012 L18.7752812,0.503722747 L27.4999528,10.2047811 L27.4999703,10.5 L18.4996747,10.5 L18.4931697,0.503239012 Z"></path>
                </g>
            </g>
        </g>
    </g>
</svg>