<?xml version="1.0" encoding="UTF-8"?>
<svg width="30px" height="36px" viewBox="0 0 30 36" version="1.1" xmlns="http://www.w3.org/2000/svg" xmlns:xlink="http://www.w3.org/1999/xlink">
    <!-- Generator: Sketch Beta 43.1 (39012) - http://www.bohemiancoding.com/sketch -->
    <title>Group 2</title>
    <desc>Created with Sketch Beta.</desc>
    <defs>
        <linearGradient x1="50%" y1="0%" x2="50%" y2="100%" id="linearGradient-1">
            <stop stop-color="#FFFFFF" offset="0%"></stop>
            <stop stop-color="#F4F4F4" offset="100%"></stop>
        </linearGradient>
        <path d="M19,0 L1.99124431,0 C0.899897516,0 -1.77635684e-15,0.895394863 -1.77635684e-15,1.9999204 L-1.77635684e-15,32.0000796 C-1.77635684e-15,33.1080589 0.891510444,34 1.99124431,34 L26.0087557,34 C27.1001025,34 28,33.1046051 28,32.0000796 L28,10 L19,10 L19,6.66133815e-16 Z" id="path-2"></path>
        <filter x="-7.1%" y="-17.6%" width="125.0%" height="126.5%" filterUnits="objectBoundingBox" id="filter-3">
            <feOffset dx="0" dy="1" in="SourceAlpha" result="shadowOffsetOuter1"></feOffset>
            <feGaussianBlur stdDeviation="0.5" in="shadowOffsetOuter1" result="shadowBlurOuter1"></feGaussianBlur>
            <feComposite in="shadowBlurOuter1" in2="SourceAlpha" operator="out" result="shadowBlurOuter1"></feComposite>
            <feColorMatrix values="0 0 0 0 0.9375   0 0 0 0 0.9375   0 0 0 0 0.9375  0 0 0 0.5 0" type="matrix" in="shadowBlurOuter1"></feColorMatrix>
        </filter>
        <linearGradient x1="50%" y1="0%" x2="50%" y2="100%" id="linearGradient-4">
            <stop stop-color="#FFFFFF" offset="0%"></stop>
            <stop stop-color="#FAFAFA" offset="100%"></stop>
        </linearGradient>
        <polygon id="path-5" points="17.9928436 0.00238037109 18.9984131 0.00410461426 27.9999414 10.0130031 28 11 18 11"></polygon>
        <filter x="-20.0%" y="-9.1%" width="140.0%" height="136.4%" filterUnits="objectBoundingBox" id="filter-6">
            <feOffset dx="0" dy="1" in="SourceAlpha" result="shadowOffsetOuter1"></feOffset>
            <feGaussianBlur stdDeviation="0.5" in="shadowOffsetOuter1" result="shadowBlurOuter1"></feGaussianBlur>
            <feComposite in="shadowBlurOuter1" in2="SourceAlpha" operator="out" result="shadowBlurOuter1"></feComposite>
            <feColorMatrix values="0 0 0 0 0.937254902   0 0 0 0 0.937254902   0 0 0 0 0.937254902  0 0 0 0.5 0" type="matrix" in="shadowBlurOuter1"></feColorMatrix>
        </filter>
    </defs>
    <g id="图标" stroke="none" stroke-width="1" fill="none" fill-rule="evenodd">
        <g id="word" transform="translate(-9.000000, -7.000000)">
            <g id="Group-2" transform="translate(10.000000, 7.000000)">
                <g id="Combined-Shape">
                    <use fill="black" fill-opacity="1" filter="url(#filter-3)" xlink:href="#path-2"></use>
                    <use fill="url(#linearGradient-1)" fill-rule="evenodd" xlink:href="#path-2"></use>
                    <path stroke="#CCCCCC" stroke-width="1" d="M18.5,0.5 L18.5,10 L18.5,10.5 L19,10.5 L27.5,10.5 L27.5,32.0000796 C27.5,32.8257232 26.8266952,33.5 26.0087557,33.5 L1.99124431,33.5 C1.16681741,33.5 0.5,32.8310761 0.5,32.0000796 L0.5,1.9999204 C0.5,1.17427675 1.17330482,0.5 1.99124431,0.5 L18.5,0.5 Z"></path>
                </g>
                <g id="Group" transform="translate(3.000000, 4.000000)" fill="#D8D8D8">
                    <rect id="Rectangle-4" x="0" y="2" width="11" height="1"></rect>
                    <rect id="Rectangle-4-Copy-6" x="12" y="2" width="2" height="1"></rect>
                    <rect id="Rectangle-4-Copy-5" x="0" y="0" width="6" height="1"></rect>
                    <rect id="Rectangle-4-Copy" x="0" y="4" width="5" height="1"></rect>
                    <rect id="Rectangle-4-Copy-3" x="7" y="4" width="5" height="1"></rect>
                    <rect id="Rectangle-4-Copy-4" x="13" y="4" width="5" height="1"></rect>
                    <rect id="Rectangle-4-Copy-2" x="0" y="6" width="11" height="1"></rect>
                    <rect id="Rectangle-4-Copy-7" x="0" y="8" width="7" height="1"></rect>
                    <rect id="Rectangle-4-Copy-8" x="9" y="8" width="7" height="1"></rect>
                    <rect id="Rectangle-4-Copy-9" x="0" y="10" width="5" height="1"></rect>
                </g>
                <path d="M5.74707031,28 L5.74707031,20.8417969 L7.19238281,20.8417969 L7.19238281,24.0205078 L10.1123047,20.8417969 L12.0556641,20.8417969 L9.36035156,23.6298828 L12.2021484,28 L10.3320312,28 L8.36425781,24.640625 L7.19238281,25.8369141 L7.19238281,28 L5.74707031,28 Z M15.9423828,26.3496094 L17.3095703,26.5791016 C17.1337882,27.0804062 16.8562844,27.4620755 16.4770508,27.7241211 C16.0978171,27.9861667 15.6233752,28.1171875 15.0537109,28.1171875 C14.1520137,28.1171875 13.4847027,27.8225941 13.0517578,27.2333984 C12.7099592,26.7613909 12.5390625,26.1656937 12.5390625,25.4462891 C12.5390625,24.5869098 12.7636696,23.9139022 13.2128906,23.4272461 C13.6621116,22.94059 14.2301398,22.6972656 14.9169922,22.6972656 C15.6884804,22.6972656 16.2971983,22.9519831 16.7431641,23.4614258 C17.1891298,23.9708684 17.4023438,24.7512968 17.3828125,25.8027344 L13.9453125,25.8027344 C13.9550782,26.2096375 14.0657542,26.5262033 14.2773438,26.7524414 C14.4889333,26.9786795 14.7526026,27.0917969 15.0683594,27.0917969 C15.2832042,27.0917969 15.4638665,27.0332037 15.6103516,26.9160156 C15.7568367,26.7988275 15.8675126,26.6100273 15.9423828,26.3496094 Z M16.0205078,24.9628906 C16.0107421,24.5657532 15.9082041,24.2638357 15.7128906,24.0571289 C15.5175771,23.8504221 15.2799493,23.7470703 15,23.7470703 C14.7005193,23.7470703 14.453126,23.8561187 14.2578125,24.0742188 C14.062499,24.2923188 13.9664713,24.5885398 13.9697266,24.9628906 L16.0205078,24.9628906 Z M17.8515625,22.8144531 L19.3115234,22.8144531 L20.5517578,26.4960938 L21.7626953,22.8144531 L23.1835938,22.8144531 L21.3525391,27.8046875 L21.0253906,28.7080078 C20.9049473,29.0107437 20.7902024,29.2418612 20.6811523,29.4013672 C20.5721023,29.5608732 20.4467781,29.6902664 20.3051758,29.7895508 C20.1635735,29.8888351 19.9894216,29.9661456 19.7827148,30.0214844 C19.5760081,30.0768232 19.3424492,30.1044922 19.0820312,30.1044922 C18.8183581,30.1044922 18.5595716,30.0768232 18.3056641,30.0214844 L18.1835938,28.9472656 C18.3984386,28.9895835 18.5921215,29.0107422 18.7646484,29.0107422 C19.0836604,29.0107422 19.3196607,28.9171559 19.4726562,28.7299805 C19.6256518,28.5428051 19.7428381,28.3043634 19.8242188,28.0146484 L17.8515625,22.8144531 Z" id="Key" fill="#F49551"></path>
                <g id="Rectangle-2">
                    <use fill="black" fill-opacity="1" filter="url(#filter-6)" xlink:href="#path-5"></use>
                    <use fill="url(#linearGradient-4)" fill-rule="evenodd" xlink:href="#path-5"></use>
                    <path stroke="#CCCCCC" stroke-width="1" d="M18.4931697,0.503239012 L18.7752812,0.503722747 L27.4999528,10.2047811 L27.4999703,10.5 L18.4996747,10.5 L18.4931697,0.503239012 Z"></path>
                </g>
            </g>
        </g>
    </g>
</svg>