<?xml version="1.0" encoding="UTF-8"?>
<svg width="30px" height="36px" viewBox="0 0 30 36" version="1.1" xmlns="http://www.w3.org/2000/svg" xmlns:xlink="http://www.w3.org/1999/xlink">
    <!-- Generator: Sketch Beta 43.1 (39012) - http://www.bohemiancoding.com/sketch -->
    <title>Group 2</title>
    <desc>Created with Sketch Beta.</desc>
    <defs>
        <linearGradient x1="50%" y1="0%" x2="50%" y2="100%" id="linearGradient-1">
            <stop stop-color="#FFFFFF" offset="0%"></stop>
            <stop stop-color="#F4F4F4" offset="100%"></stop>
        </linearGradient>
        <path d="M19,0 L1.99124431,0 C0.899897516,0 -1.77635684e-15,0.895394863 -1.77635684e-15,1.9999204 L-1.77635684e-15,32.0000796 C-1.77635684e-15,33.1080589 0.891510444,34 1.99124431,34 L26.0087557,34 C27.1001025,34 28,33.1046051 28,32.0000796 L28,10 L19,10 L19,6.66133815e-16 Z" id="path-2"></path>
        <filter x="-7.1%" y="-17.6%" width="125.0%" height="126.5%" filterUnits="objectBoundingBox" id="filter-3">
            <feOffset dx="0" dy="1" in="SourceAlpha" result="shadowOffsetOuter1"></feOffset>
            <feGaussianBlur stdDeviation="0.5" in="shadowOffsetOuter1" result="shadowBlurOuter1"></feGaussianBlur>
            <feComposite in="shadowBlurOuter1" in2="SourceAlpha" operator="out" result="shadowBlurOuter1"></feComposite>
            <feColorMatrix values="0 0 0 0 0.9375   0 0 0 0 0.9375   0 0 0 0 0.9375  0 0 0 0.5 0" type="matrix" in="shadowBlurOuter1"></feColorMatrix>
        </filter>
        <linearGradient x1="50%" y1="0%" x2="50%" y2="100%" id="linearGradient-4">
            <stop stop-color="#FFFFFF" offset="0%"></stop>
            <stop stop-color="#FAFAFA" offset="100%"></stop>
        </linearGradient>
        <polygon id="path-5" points="17.9928436 0.00238037109 18.9984131 0.00410461426 27.9999414 10.0130031 28 11 18 11"></polygon>
        <filter x="-20.0%" y="-9.1%" width="140.0%" height="136.4%" filterUnits="objectBoundingBox" id="filter-6">
            <feOffset dx="0" dy="1" in="SourceAlpha" result="shadowOffsetOuter1"></feOffset>
            <feGaussianBlur stdDeviation="0.5" in="shadowOffsetOuter1" result="shadowBlurOuter1"></feGaussianBlur>
            <feComposite in="shadowBlurOuter1" in2="SourceAlpha" operator="out" result="shadowBlurOuter1"></feComposite>
            <feColorMatrix values="0 0 0 0 0.937254902   0 0 0 0 0.937254902   0 0 0 0 0.937254902  0 0 0 0.5 0" type="matrix" in="shadowBlurOuter1"></feColorMatrix>
        </filter>
    </defs>
    <g id="图标" stroke="none" stroke-width="1" fill="none" fill-rule="evenodd">
        <g id="Png" transform="translate(-9.000000, -7.000000)">
            <g id="Group-2" transform="translate(10.000000, 7.000000)">
                <g id="Combined-Shape">
                    <use fill="black" fill-opacity="1" filter="url(#filter-3)" xlink:href="#path-2"></use>
                    <use fill="url(#linearGradient-1)" fill-rule="evenodd" xlink:href="#path-2"></use>
                    <path stroke="#CCCCCC" stroke-width="1" d="M18.5,0.5 L18.5,10 L18.5,10.5 L19,10.5 L27.5,10.5 L27.5,32.0000796 C27.5,32.8257232 26.8266952,33.5 26.0087557,33.5 L1.99124431,33.5 C1.16681741,33.5 0.5,32.8310761 0.5,32.0000796 L0.5,1.9999204 C0.5,1.17427675 1.17330482,0.5 1.99124431,0.5 L18.5,0.5 Z"></path>
                </g>
                <g id="Group" transform="translate(3.000000, 4.000000)" fill="#D8D8D8">
                    <rect id="Rectangle-4" x="0" y="2" width="11" height="1"></rect>
                    <rect id="Rectangle-4-Copy-6" x="12" y="2" width="2" height="1"></rect>
                    <rect id="Rectangle-4-Copy-5" x="0" y="0" width="6" height="1"></rect>
                    <rect id="Rectangle-4-Copy" x="0" y="4" width="5" height="1"></rect>
                    <rect id="Rectangle-4-Copy-3" x="7" y="4" width="5" height="1"></rect>
                    <rect id="Rectangle-4-Copy-4" x="13" y="4" width="5" height="1"></rect>
                    <rect id="Rectangle-4-Copy-2" x="0" y="6" width="11" height="1"></rect>
                    <rect id="Rectangle-4-Copy-7" x="0" y="8" width="7" height="1"></rect>
                    <rect id="Rectangle-4-Copy-8" x="9" y="8" width="7" height="1"></rect>
                    <rect id="Rectangle-4-Copy-9" x="0" y="10" width="5" height="1"></rect>
                </g>
                <path d="M4.72753906,27 L4.72753906,19.8417969 L7.046875,19.8417969 C7.92578564,19.8417969 8.49869658,19.8776038 8.765625,19.9492188 C9.1757833,20.0566412 9.51920435,20.2902 9.79589844,20.6499023 C10.0725925,21.0096047 10.2109375,21.474281 10.2109375,22.0439453 C10.2109375,22.4834006 10.1311857,22.8528631 9.97167969,23.1523438 C9.81217368,23.4518244 9.60953899,23.6870109 9.36376953,23.8579102 C9.11800007,24.0288094 8.86816533,24.1419268 8.61425781,24.1972656 C8.269204,24.2656253 7.76953452,24.2998047 7.11523438,24.2998047 L6.17285156,24.2998047 L6.17285156,27 L4.72753906,27 Z M6.17285156,21.0527344 L6.17285156,23.0839844 L6.96386719,23.0839844 C7.53353149,23.0839844 7.91438706,23.0465499 8.10644531,22.9716797 C8.29850356,22.8968095 8.44905544,22.7796232 8.55810547,22.6201172 C8.66715549,22.4606112 8.72167969,22.2750662 8.72167969,22.0634766 C8.72167969,21.8030586 8.64518306,21.588217 8.4921875,21.4189453 C8.33919194,21.2496736 8.14550898,21.1438804 7.91113281,21.1015625 C7.73860591,21.0690103 7.39192969,21.0527344 6.87109375,21.0527344 L6.17285156,21.0527344 Z M11.4121094,27 L11.4121094,19.8417969 L12.8183594,19.8417969 L15.7480469,24.6220703 L15.7480469,19.8417969 L17.0908203,19.8417969 L17.0908203,27 L15.640625,27 L12.7548828,22.3320312 L12.7548828,27 L11.4121094,27 Z M21.9492188,24.3681641 L21.9492188,23.1621094 L25.0644531,23.1621094 L25.0644531,26.0136719 C24.7617172,26.3066421 24.3230823,26.5646148 23.7485352,26.7875977 C23.173988,27.0105805 22.5921253,27.1220703 22.0029297,27.1220703 C21.254228,27.1220703 20.6015653,26.9650081 20.0449219,26.6508789 C19.4882785,26.3367497 19.0699884,25.8875355 18.7900391,25.3032227 C18.5100897,24.7189098 18.3701172,24.0833368 18.3701172,23.3964844 C18.3701172,22.6510379 18.5263656,21.9886097 18.8388672,21.4091797 C19.1513687,20.8297497 19.6087209,20.3854182 20.2109375,20.0761719 C20.6699242,19.8385405 21.2412075,19.7197266 21.9248047,19.7197266 C22.813481,19.7197266 23.5076472,19.9060854 24.0073242,20.2788086 C24.5070012,20.6515318 24.8284498,21.1666634 24.9716797,21.8242188 L23.5361328,22.0927734 C23.4352208,21.7412092 23.2456069,21.4637054 22.9672852,21.2602539 C22.6889635,21.0568024 22.3414734,20.9550781 21.9248047,20.9550781 C21.2932911,20.9550781 20.7911802,21.1552714 20.418457,21.5556641 C20.0457338,21.9560567 19.859375,22.5501263 19.859375,23.3378906 C19.859375,24.1875042 20.0481752,24.8247049 20.4257812,25.2495117 C20.8033873,25.6743185 21.298174,25.8867188 21.9101562,25.8867188 C22.2128921,25.8867188 22.5164373,25.8273118 22.8208008,25.7084961 C23.1251643,25.5896804 23.3863921,25.4456389 23.6044922,25.2763672 L23.6044922,24.3681641 L21.9492188,24.3681641 Z" id="PNG" fill="#999999"></path>
                <g id="Rectangle-2">
                    <use fill="black" fill-opacity="1" filter="url(#filter-6)" xlink:href="#path-5"></use>
                    <use fill="url(#linearGradient-4)" fill-rule="evenodd" xlink:href="#path-5"></use>
                    <path stroke="#CCCCCC" stroke-width="1" d="M18.4931697,0.503239012 L18.7752812,0.503722747 L27.4999528,10.2047811 L27.4999703,10.5 L18.4996747,10.5 L18.4931697,0.503239012 Z"></path>
                </g>
            </g>
        </g>
    </g>
</svg>