<?xml version="1.0" encoding="UTF-8"?>
<svg width="30px" height="36px" viewBox="0 0 30 36" version="1.1" xmlns="http://www.w3.org/2000/svg" xmlns:xlink="http://www.w3.org/1999/xlink">
    <!-- Generator: Sketch Beta 43.1 (39012) - http://www.bohemiancoding.com/sketch -->
    <title>Group 3</title>
    <desc>Created with Sketch Beta.</desc>
    <defs>
        <linearGradient x1="50%" y1="0%" x2="50%" y2="100%" id="linearGradient-1">
            <stop stop-color="#FFFFFF" offset="0%"></stop>
            <stop stop-color="#F4F4F4" offset="100%"></stop>
        </linearGradient>
        <path d="M19,0 L1.99124431,0 C0.899897516,0 0,0.895394863 0,1.9999204 L0,32.0000796 C0,33.1080589 0.891510444,34 1.99124431,34 L26.0087557,34 C27.1001025,34 28,33.1046051 28,32.0000796 L28,10 L19,10 L19,6.66133815e-16 Z" id="path-2"></path>
        <filter x="-7.1%" y="-17.6%" width="125.0%" height="126.5%" filterUnits="objectBoundingBox" id="filter-3">
            <feOffset dx="0" dy="1" in="SourceAlpha" result="shadowOffsetOuter1"></feOffset>
            <feGaussianBlur stdDeviation="0.5" in="shadowOffsetOuter1" result="shadowBlurOuter1"></feGaussianBlur>
            <feComposite in="shadowBlurOuter1" in2="SourceAlpha" operator="out" result="shadowBlurOuter1"></feComposite>
            <feColorMatrix values="0 0 0 0 0.9375   0 0 0 0 0.9375   0 0 0 0 0.9375  0 0 0 0.5 0" type="matrix" in="shadowBlurOuter1"></feColorMatrix>
        </filter>
        <linearGradient x1="50%" y1="0%" x2="50%" y2="100%" id="linearGradient-4">
            <stop stop-color="#FFFFFF" offset="0%"></stop>
            <stop stop-color="#FAFAFA" offset="100%"></stop>
        </linearGradient>
        <polygon id="path-5" points="17.9928436 0.00238037109 18.9984131 0.00410461426 27.9999414 10.0130031 28 11 18 11"></polygon>
        <filter x="-20.0%" y="-9.1%" width="140.0%" height="136.4%" filterUnits="objectBoundingBox" id="filter-6">
            <feOffset dx="0" dy="1" in="SourceAlpha" result="shadowOffsetOuter1"></feOffset>
            <feGaussianBlur stdDeviation="0.5" in="shadowOffsetOuter1" result="shadowBlurOuter1"></feGaussianBlur>
            <feComposite in="shadowBlurOuter1" in2="SourceAlpha" operator="out" result="shadowBlurOuter1"></feComposite>
            <feColorMatrix values="0 0 0 0 0.937254902   0 0 0 0 0.937254902   0 0 0 0 0.937254902  0 0 0 0.5 0" type="matrix" in="shadowBlurOuter1"></feColorMatrix>
        </filter>
    </defs>
    <g id="图标" stroke="none" stroke-width="1" fill="none" fill-rule="evenodd">
        <g id="pdf" transform="translate(-9.000000, -7.000000)">
            <g id="Group-3" transform="translate(10.000000, 7.000000)">
                <g id="Group" transform="translate(3.000000, 4.000000)"></g>
                <g id="Group-2">
                    <g id="Combined-Shape">
                        <use fill="black" fill-opacity="1" filter="url(#filter-3)" xlink:href="#path-2"></use>
                        <use fill="url(#linearGradient-1)" fill-rule="evenodd" xlink:href="#path-2"></use>
                        <path stroke="#CCCCCC" stroke-width="1" d="M18.5,0.5 L18.5,10 L18.5,10.5 L19,10.5 L27.5,10.5 L27.5,32.0000796 C27.5,32.8257232 26.8266952,33.5 26.0087557,33.5 L1.99124431,33.5 C1.16681741,33.5 0.5,32.8310761 0.5,32.0000796 L0.5,1.9999204 C0.5,1.17427675 1.17330482,0.5 1.99124431,0.5 L18.5,0.5 Z"></path>
                    </g>
                    <path d="M4.72753906,28 L4.72753906,20.8417969 L7.046875,20.8417969 C7.92578564,20.8417969 8.49869658,20.8776038 8.765625,20.9492188 C9.1757833,21.0566412 9.51920435,21.2902 9.79589844,21.6499023 C10.0725925,22.0096047 10.2109375,22.474281 10.2109375,23.0439453 C10.2109375,23.4834006 10.1311857,23.8528631 9.97167969,24.1523438 C9.81217368,24.4518244 9.60953899,24.6870109 9.36376953,24.8579102 C9.11800007,25.0288094 8.86816533,25.1419268 8.61425781,25.1972656 C8.269204,25.2656253 7.76953452,25.2998047 7.11523438,25.2998047 L6.17285156,25.2998047 L6.17285156,28 L4.72753906,28 Z M6.17285156,22.0527344 L6.17285156,24.0839844 L6.96386719,24.0839844 C7.53353149,24.0839844 7.91438706,24.0465499 8.10644531,23.9716797 C8.29850356,23.8968095 8.44905544,23.7796232 8.55810547,23.6201172 C8.66715549,23.4606112 8.72167969,23.2750662 8.72167969,23.0634766 C8.72167969,22.8030586 8.64518306,22.588217 8.4921875,22.4189453 C8.33919194,22.2496736 8.14550898,22.1438804 7.91113281,22.1015625 C7.73860591,22.0690103 7.39192969,22.0527344 6.87109375,22.0527344 L6.17285156,22.0527344 Z M11.3925781,20.8417969 L14.0341797,20.8417969 C14.6298858,20.8417969 15.0839828,20.8873693 15.3964844,20.9785156 C15.8164083,21.1022142 16.1761053,21.3219385 16.4755859,21.6376953 C16.7750666,21.9534521 17.0029289,22.3400042 17.1591797,22.7973633 C17.3154305,23.2547223 17.3935547,23.8186815 17.3935547,24.4892578 C17.3935547,25.0784535 17.3203132,25.5862609 17.1738281,26.0126953 C16.9947908,26.5335312 16.7392595,26.9550765 16.4072266,27.2773438 C16.1565743,27.5214856 15.818036,27.7119134 15.3916016,27.8486328 C15.0725896,27.9495448 14.6461615,28 14.1123047,28 L11.3925781,28 L11.3925781,20.8417969 Z M12.8378906,22.0527344 L12.8378906,26.7939453 L13.9169922,26.7939453 C14.32064,26.7939453 14.6119783,26.7711591 14.7910156,26.7255859 C15.0253918,26.6669919 15.2198885,26.567709 15.3745117,26.4277344 C15.5291349,26.2877597 15.6552729,26.057456 15.7529297,25.7368164 C15.8505864,25.4161768 15.8994141,24.9791694 15.8994141,24.4257812 C15.8994141,23.8723931 15.8505864,23.4475926 15.7529297,23.1513672 C15.6552729,22.8551417 15.5185556,22.6240243 15.3427734,22.4580078 C15.1669913,22.2919914 14.9440118,22.1796878 14.6738281,22.1210938 C14.4720042,22.0755206 14.0765003,22.0527344 13.4873047,22.0527344 L12.8378906,22.0527344 Z M18.6289062,28 L18.6289062,20.8417969 L23.5361328,20.8417969 L23.5361328,22.0527344 L20.0742188,22.0527344 L20.0742188,23.7470703 L23.0625,23.7470703 L23.0625,24.9580078 L20.0742188,24.9580078 L20.0742188,28 L18.6289062,28 Z" id="PDF" fill="#F36B6B"></path>
                    <rect id="Rectangle-4" fill="#D8D8D8" x="3" y="6" width="11" height="1"></rect>
                    <rect id="Rectangle-4-Copy-6" fill="#D8D8D8" x="15" y="6" width="2" height="1"></rect>
                    <rect id="Rectangle-4-Copy-5" fill="#D8D8D8" x="3" y="4" width="6" height="1"></rect>
                    <rect id="Rectangle-4-Copy" fill="#D8D8D8" x="3" y="8" width="5" height="1"></rect>
                    <rect id="Rectangle-4-Copy-3" fill="#D8D8D8" x="10" y="8" width="5" height="1"></rect>
                    <rect id="Rectangle-4-Copy-4" fill="#D8D8D8" x="16" y="8" width="5" height="1"></rect>
                    <rect id="Rectangle-4-Copy-2" fill="#D8D8D8" x="3" y="10" width="11" height="1"></rect>
                    <rect id="Rectangle-4-Copy-7" fill="#D8D8D8" x="3" y="12" width="7" height="1"></rect>
                    <rect id="Rectangle-4-Copy-8" fill="#D8D8D8" x="12" y="12" width="7" height="1"></rect>
                    <rect id="Rectangle-4-Copy-9" fill="#D8D8D8" x="3" y="14" width="5" height="1"></rect>
                    <g id="Rectangle-2">
                        <use fill="black" fill-opacity="1" filter="url(#filter-6)" xlink:href="#path-5"></use>
                        <use fill="url(#linearGradient-4)" fill-rule="evenodd" xlink:href="#path-5"></use>
                        <path stroke="#CCCCCC" stroke-width="1" d="M18.4931697,0.503239012 L18.7752812,0.503722747 L27.4999528,10.2047811 L27.4999703,10.5 L18.4996747,10.5 L18.4931697,0.503239012 Z"></path>
                    </g>
                </g>
            </g>
        </g>
    </g>
</svg>