<?xml version="1.0" encoding="UTF-8"?>
<svg width="30px" height="36px" viewBox="0 0 30 36" version="1.1" xmlns="http://www.w3.org/2000/svg" xmlns:xlink="http://www.w3.org/1999/xlink">
    <!-- Generator: Sketch Beta 43.1 (39012) - http://www.bohemiancoding.com/sketch -->
    <title>Group 2</title>
    <desc>Created with Sketch Beta.</desc>
    <defs>
        <linearGradient x1="50%" y1="0%" x2="50%" y2="100%" id="linearGradient-1">
            <stop stop-color="#FFFFFF" offset="0%"></stop>
            <stop stop-color="#F4F4F4" offset="100%"></stop>
        </linearGradient>
        <path d="M19,0 L1.99124431,0 C0.899897516,0 -1.77635684e-15,0.895394863 -1.77635684e-15,1.9999204 L-1.77635684e-15,32.0000796 C-1.77635684e-15,33.1080589 0.891510444,34 1.99124431,34 L26.0087557,34 C27.1001025,34 28,33.1046051 28,32.0000796 L28,10 L19,10 L19,6.66133815e-16 Z" id="path-2"></path>
        <filter x="-7.1%" y="-17.6%" width="125.0%" height="126.5%" filterUnits="objectBoundingBox" id="filter-3">
            <feOffset dx="0" dy="1" in="SourceAlpha" result="shadowOffsetOuter1"></feOffset>
            <feGaussianBlur stdDeviation="0.5" in="shadowOffsetOuter1" result="shadowBlurOuter1"></feGaussianBlur>
            <feComposite in="shadowBlurOuter1" in2="SourceAlpha" operator="out" result="shadowBlurOuter1"></feComposite>
            <feColorMatrix values="0 0 0 0 0.9375   0 0 0 0 0.9375   0 0 0 0 0.9375  0 0 0 0.5 0" type="matrix" in="shadowBlurOuter1"></feColorMatrix>
        </filter>
        <linearGradient x1="50%" y1="0%" x2="50%" y2="100%" id="linearGradient-4">
            <stop stop-color="#FFFFFF" offset="0%"></stop>
            <stop stop-color="#FAFAFA" offset="100%"></stop>
        </linearGradient>
        <polygon id="path-5" points="17.9928436 0.00238037109 18.9984131 0.00410461426 27.9999414 10.0130031 28 11 18 11"></polygon>
        <filter x="-20.0%" y="-9.1%" width="140.0%" height="136.4%" filterUnits="objectBoundingBox" id="filter-6">
            <feOffset dx="0" dy="1" in="SourceAlpha" result="shadowOffsetOuter1"></feOffset>
            <feGaussianBlur stdDeviation="0.5" in="shadowOffsetOuter1" result="shadowBlurOuter1"></feGaussianBlur>
            <feComposite in="shadowBlurOuter1" in2="SourceAlpha" operator="out" result="shadowBlurOuter1"></feComposite>
            <feColorMatrix values="0 0 0 0 0.937254902   0 0 0 0 0.937254902   0 0 0 0 0.937254902  0 0 0 0.5 0" type="matrix" in="shadowBlurOuter1"></feColorMatrix>
        </filter>
    </defs>
    <g id="图标" stroke="none" stroke-width="1" fill="none" fill-rule="evenodd">
        <g id="Png-Copy" transform="translate(-9.000000, -7.000000)">
            <g id="Group-2" transform="translate(10.000000, 7.000000)">
                <g id="Combined-Shape">
                    <use fill="black" fill-opacity="1" filter="url(#filter-3)" xlink:href="#path-2"></use>
                    <use fill="url(#linearGradient-1)" fill-rule="evenodd" xlink:href="#path-2"></use>
                    <path stroke="#CCCCCC" stroke-width="1" d="M18.5,0.5 L18.5,10 L18.5,10.5 L19,10.5 L27.5,10.5 L27.5,32.0000796 C27.5,32.8257232 26.8266952,33.5 26.0087557,33.5 L1.99124431,33.5 C1.16681741,33.5 0.5,32.8310761 0.5,32.0000796 L0.5,1.9999204 C0.5,1.17427675 1.17330482,0.5 1.99124431,0.5 L18.5,0.5 Z"></path>
                </g>
                <g id="Group" transform="translate(3.000000, 4.000000)" fill="#D8D8D8">
                    <rect id="Rectangle-4" x="0" y="2" width="11" height="1"></rect>
                    <rect id="Rectangle-4-Copy-6" x="12" y="2" width="2" height="1"></rect>
                    <rect id="Rectangle-4-Copy-5" x="0" y="0" width="6" height="1"></rect>
                    <rect id="Rectangle-4-Copy" x="0" y="4" width="5" height="1"></rect>
                    <rect id="Rectangle-4-Copy-3" x="7" y="4" width="5" height="1"></rect>
                    <rect id="Rectangle-4-Copy-4" x="13" y="4" width="5" height="1"></rect>
                    <rect id="Rectangle-4-Copy-2" x="0" y="6" width="11" height="1"></rect>
                    <rect id="Rectangle-4-Copy-7" x="0" y="8" width="7" height="1"></rect>
                    <rect id="Rectangle-4-Copy-8" x="9" y="8" width="7" height="1"></rect>
                    <rect id="Rectangle-4-Copy-9" x="0" y="10" width="5" height="1"></rect>
                </g>
                <path d="M7.31054688,19.8417969 L8.75097656,19.8417969 L8.75097656,24.3730469 C8.75097656,24.9654978 8.69889375,25.4212224 8.59472656,25.7402344 C8.4547519,26.1569031 8.20084819,26.4913724 7.83300781,26.7436523 C7.46516743,26.9959323 6.98014624,27.1220703 6.37792969,27.1220703 C5.67154595,27.1220703 5.12793159,26.9243184 4.74707031,26.5288086 C4.36620903,26.1332988 4.17415366,25.5530637 4.17089844,24.7880859 L5.53320312,24.6318359 C5.54947925,25.0419942 5.6097,25.3317049 5.71386719,25.5009766 C5.87011797,25.7581393 6.1077458,25.8867188 6.42675781,25.8867188 C6.74902505,25.8867188 6.97688735,25.79476 7.11035156,25.6108398 C7.24381577,25.4269197 7.31054688,25.0452503 7.31054688,24.4658203 L7.31054688,19.8417969 Z M10.2890625,27 L10.2890625,19.8417969 L12.6083984,19.8417969 C13.4873091,19.8417969 14.06022,19.8776038 14.3271484,19.9492188 C14.7373067,20.0566412 15.0807278,20.2902 15.3574219,20.6499023 C15.634116,21.0096047 15.7724609,21.474281 15.7724609,22.0439453 C15.7724609,22.4834006 15.6927091,22.8528631 15.5332031,23.1523438 C15.3736971,23.4518244 15.1710624,23.6870109 14.925293,23.8579102 C14.6795235,24.0288094 14.4296888,24.1419268 14.1757812,24.1972656 C13.8307274,24.2656253 13.331058,24.2998047 12.6767578,24.2998047 L11.734375,24.2998047 L11.734375,27 L10.2890625,27 Z M11.734375,21.0527344 L11.734375,23.0839844 L12.5253906,23.0839844 C13.0950549,23.0839844 13.4759105,23.0465499 13.6679688,22.9716797 C13.860027,22.8968095 14.0105789,22.7796232 14.1196289,22.6201172 C14.2286789,22.4606112 14.2832031,22.2750662 14.2832031,22.0634766 C14.2832031,21.8030586 14.2067065,21.588217 14.0537109,21.4189453 C13.9007154,21.2496736 13.7070324,21.1438804 13.4726562,21.1015625 C13.3001293,21.0690103 12.9534531,21.0527344 12.4326172,21.0527344 L11.734375,21.0527344 Z M20.2890625,24.3681641 L20.2890625,23.1621094 L23.4042969,23.1621094 L23.4042969,26.0136719 C23.101561,26.3066421 22.662926,26.5646148 22.0883789,26.7875977 C21.5138318,27.0105805 20.9319691,27.1220703 20.3427734,27.1220703 C19.5940718,27.1220703 18.941409,26.9650081 18.3847656,26.6508789 C17.8281222,26.3367497 17.4098321,25.8875355 17.1298828,25.3032227 C16.8499335,24.7189098 16.7099609,24.0833368 16.7099609,23.3964844 C16.7099609,22.6510379 16.8662094,21.9886097 17.1787109,21.4091797 C17.4912125,20.8297497 17.9485647,20.3854182 18.5507812,20.0761719 C19.0097679,19.8385405 19.5810513,19.7197266 20.2646484,19.7197266 C21.1533248,19.7197266 21.847491,19.9060854 22.347168,20.2788086 C22.8468449,20.6515318 23.1682936,21.1666634 23.3115234,21.8242188 L21.8759766,22.0927734 C21.7750646,21.7412092 21.5854506,21.4637054 21.3071289,21.2602539 C21.0288072,21.0568024 20.6813172,20.9550781 20.2646484,20.9550781 C19.6331349,20.9550781 19.131024,21.1552714 18.7583008,21.5556641 C18.3855776,21.9560567 18.1992188,22.5501263 18.1992188,23.3378906 C18.1992188,24.1875042 18.3880189,24.8247049 18.765625,25.2495117 C19.1432311,25.6743185 19.6380178,25.8867188 20.25,25.8867188 C20.5527359,25.8867188 20.856281,25.8273118 21.1606445,25.7084961 C21.465008,25.5896804 21.7262359,25.4456389 21.9443359,25.2763672 L21.9443359,24.3681641 L20.2890625,24.3681641 Z" id="JPG" fill="#999999"></path>
                <g id="Rectangle-2">
                    <use fill="black" fill-opacity="1" filter="url(#filter-6)" xlink:href="#path-5"></use>
                    <use fill="url(#linearGradient-4)" fill-rule="evenodd" xlink:href="#path-5"></use>
                    <path stroke="#CCCCCC" stroke-width="1" d="M18.4931697,0.503239012 L18.7752812,0.503722747 L27.4999528,10.2047811 L27.4999703,10.5 L18.4996747,10.5 L18.4931697,0.503239012 Z"></path>
                </g>
            </g>
        </g>
    </g>
</svg>