<?xml version="1.0" encoding="UTF-8"?>
<svg width="30px" height="36px" viewBox="0 0 30 36" version="1.1" xmlns="http://www.w3.org/2000/svg" xmlns:xlink="http://www.w3.org/1999/xlink">
    <!-- Generator: Sketch Beta 43.1 (39012) - http://www.bohemiancoding.com/sketch -->
    <title>Group 2</title>
    <desc>Created with Sketch Beta.</desc>
    <defs>
        <linearGradient x1="50%" y1="0%" x2="50%" y2="100%" id="linearGradient-1">
            <stop stop-color="#FFFFFF" offset="0%"></stop>
            <stop stop-color="#F4F4F4" offset="100%"></stop>
        </linearGradient>
        <path d="M19,0 L1.99124431,0 C0.899897516,0 0,0.895394863 0,1.9999204 L0,32.0000796 C0,33.1080589 0.891510444,34 1.99124431,34 L26.0087557,34 C27.1001025,34 28,33.1046051 28,32.0000796 L28,10 L19,10 L19,6.66133815e-16 Z" id="path-2"></path>
        <filter x="-7.1%" y="-17.6%" width="125.0%" height="126.5%" filterUnits="objectBoundingBox" id="filter-3">
            <feOffset dx="0" dy="1" in="SourceAlpha" result="shadowOffsetOuter1"></feOffset>
            <feGaussianBlur stdDeviation="0.5" in="shadowOffsetOuter1" result="shadowBlurOuter1"></feGaussianBlur>
            <feComposite in="shadowBlurOuter1" in2="SourceAlpha" operator="out" result="shadowBlurOuter1"></feComposite>
            <feColorMatrix values="0 0 0 0 0.9375   0 0 0 0 0.9375   0 0 0 0 0.9375  0 0 0 0.5 0" type="matrix" in="shadowBlurOuter1"></feColorMatrix>
        </filter>
        <linearGradient x1="50%" y1="0%" x2="50%" y2="100%" id="linearGradient-4">
            <stop stop-color="#FFFFFF" offset="0%"></stop>
            <stop stop-color="#FAFAFA" offset="100%"></stop>
        </linearGradient>
        <polygon id="path-5" points="17.9928436 0.00238037109 18.9984131 0.00410461426 27.9999414 10.0130031 28 11 18 11"></polygon>
        <filter x="-20.0%" y="-9.1%" width="140.0%" height="136.4%" filterUnits="objectBoundingBox" id="filter-6">
            <feOffset dx="0" dy="1" in="SourceAlpha" result="shadowOffsetOuter1"></feOffset>
            <feGaussianBlur stdDeviation="0.5" in="shadowOffsetOuter1" result="shadowBlurOuter1"></feGaussianBlur>
            <feComposite in="shadowBlurOuter1" in2="SourceAlpha" operator="out" result="shadowBlurOuter1"></feComposite>
            <feColorMatrix values="0 0 0 0 0.937254902   0 0 0 0 0.937254902   0 0 0 0 0.937254902  0 0 0 0.5 0" type="matrix" in="shadowBlurOuter1"></feColorMatrix>
        </filter>
    </defs>
    <g id="图标" stroke="none" stroke-width="1" fill="none" fill-rule="evenodd">
        <g id="xls" transform="translate(-9.000000, -7.000000)">
            <g id="Group-2" transform="translate(10.000000, 7.000000)">
                <g id="Combined-Shape">
                    <use fill="black" fill-opacity="1" filter="url(#filter-3)" xlink:href="#path-2"></use>
                    <use fill="url(#linearGradient-1)" fill-rule="evenodd" xlink:href="#path-2"></use>
                    <path stroke="#CCCCCC" stroke-width="1" d="M18.5,0.5 L18.5,10 L18.5,10.5 L19,10.5 L27.5,10.5 L27.5,32.0000796 C27.5,32.8257232 26.8266952,33.5 26.0087557,33.5 L1.99124431,33.5 C1.16681741,33.5 0.5,32.8310761 0.5,32.0000796 L0.5,1.9999204 C0.5,1.17427675 1.17330482,0.5 1.99124431,0.5 L18.5,0.5 Z"></path>
                </g>
                <path d="M5,28 L7.44628906,24.2646484 L5.22949219,20.8417969 L6.91894531,20.8417969 L8.35449219,23.1416016 L9.76074219,20.8417969 L11.4355469,20.8417969 L9.20898438,24.3183594 L11.6552734,28 L9.91210938,28 L8.32519531,25.5244141 L6.73339844,28 L5,28 Z M12.4365234,28 L12.4365234,20.9003906 L13.8818359,20.9003906 L13.8818359,26.7939453 L17.4755859,26.7939453 L17.4755859,28 L12.4365234,28 Z M18.1396484,25.6708984 L19.5458984,25.5341797 C19.6305343,26.0061873 19.8022448,26.3528635 20.0610352,26.5742188 C20.3198255,26.795574 20.6689431,26.90625 21.1083984,26.90625 C21.5738956,26.90625 21.9246407,26.8077809 22.1606445,26.6108398 C22.3966483,26.4138988 22.5146484,26.1835951 22.5146484,25.9199219 C22.5146484,25.7506502 22.465007,25.6066087 22.3657227,25.487793 C22.2664383,25.3689773 22.0931002,25.2656254 21.8457031,25.1777344 C21.6764314,25.1191403 21.2906931,25.0149747 20.6884766,24.8652344 C19.9137331,24.6731761 19.3701187,24.4371759 19.0576172,24.1572266 C18.6181619,23.7633444 18.3984375,23.283206 18.3984375,22.7167969 C18.3984375,22.3522117 18.5017893,22.0112321 18.7084961,21.6938477 C18.9152029,21.3764633 19.2130514,21.1347665 19.6020508,20.96875 C19.9910501,20.8027335 20.4606092,20.7197266 21.0107422,20.7197266 C21.9091842,20.7197266 22.5854469,20.9166647 23.0395508,21.3105469 C23.4936546,21.7044291 23.7320962,22.2301399 23.7548828,22.8876953 L22.3095703,22.9511719 C22.247721,22.5833315 22.1150726,22.3188485 21.9116211,22.1577148 C21.7081696,21.9965812 21.4029968,21.9160156 20.9960938,21.9160156 C20.5761698,21.9160156 20.247397,22.0022778 20.0097656,22.1748047 C19.8567701,22.2854823 19.7802734,22.4335928 19.7802734,22.6191406 C19.7802734,22.7884123 19.8518873,22.9332676 19.9951172,23.0537109 C20.1774098,23.2067065 20.6201137,23.3662101 21.3232422,23.5322266 C22.0263707,23.698243 22.546385,23.8699535 22.8833008,24.0473633 C23.2202165,24.224773 23.4838858,24.4672836 23.6743164,24.7749023 C23.864747,25.0825211 23.9599609,25.4625628 23.9599609,25.9150391 C23.9599609,26.3251974 23.8460298,26.7093081 23.6181641,27.0673828 C23.3902983,27.4254575 23.0680359,27.6915681 22.6513672,27.8657227 C22.2346984,28.0398772 21.7154979,28.1269531 21.09375,28.1269531 C20.1887976,28.1269531 19.4938175,27.9178081 19.0087891,27.4995117 C18.5237606,27.0812154 18.23405,26.4716837 18.1396484,25.6708984 Z" id="XLS" fill="#75B52E"></path>
                <g id="Group" transform="translate(3.000000, 4.000000)" fill="#D8D8D8">
                    <rect id="Rectangle-4" x="0" y="2" width="11" height="1"></rect>
                    <rect id="Rectangle-4-Copy-6" x="12" y="2" width="2" height="1"></rect>
                    <rect id="Rectangle-4-Copy-5" x="0" y="0" width="6" height="1"></rect>
                    <rect id="Rectangle-4-Copy" x="0" y="4" width="5" height="1"></rect>
                    <rect id="Rectangle-4-Copy-3" x="7" y="4" width="5" height="1"></rect>
                    <rect id="Rectangle-4-Copy-4" x="13" y="4" width="5" height="1"></rect>
                    <rect id="Rectangle-4-Copy-2" x="0" y="6" width="11" height="1"></rect>
                    <rect id="Rectangle-4-Copy-7" x="0" y="8" width="7" height="1"></rect>
                    <rect id="Rectangle-4-Copy-8" x="9" y="8" width="7" height="1"></rect>
                    <rect id="Rectangle-4-Copy-9" x="0" y="10" width="5" height="1"></rect>
                </g>
                <g id="Rectangle-2">
                    <use fill="black" fill-opacity="1" filter="url(#filter-6)" xlink:href="#path-5"></use>
                    <use fill="url(#linearGradient-4)" fill-rule="evenodd" xlink:href="#path-5"></use>
                    <path stroke="#CCCCCC" stroke-width="1" d="M18.4931697,0.503239012 L18.7752812,0.503722747 L27.4999528,10.2047811 L27.4999703,10.5 L18.4996747,10.5 L18.4931697,0.503239012 Z"></path>
                </g>
            </g>
        </g>
    </g>
</svg>