<?xml version="1.0" encoding="UTF-8"?>
<svg width="30px" height="36px" viewBox="0 0 30 36" version="1.1" xmlns="http://www.w3.org/2000/svg" xmlns:xlink="http://www.w3.org/1999/xlink">
    <!-- Generator: Sketch Beta 43.1 (39012) - http://www.bohemiancoding.com/sketch -->
    <title>Group 3</title>
    <desc>Created with Sketch Beta.</desc>
    <defs>
        <linearGradient x1="50%" y1="0%" x2="50%" y2="100%" id="linearGradient-1">
            <stop stop-color="#FFFFFF" offset="0%"></stop>
            <stop stop-color="#F4F4F4" offset="100%"></stop>
        </linearGradient>
        <path d="M19,0 L1.99124431,0 C0.899897516,0 -1.77635684e-15,0.895394863 -1.77635684e-15,1.9999204 L-1.77635684e-15,32.0000796 C-1.77635684e-15,33.1080589 0.891510444,34 1.99124431,34 L26.0087557,34 C27.1001025,34 28,33.1046051 28,32.0000796 L28,10 L19,10 L19,6.66133815e-16 Z" id="path-2"></path>
        <filter x="-7.1%" y="-17.6%" width="125.0%" height="126.5%" filterUnits="objectBoundingBox" id="filter-3">
            <feOffset dx="0" dy="1" in="SourceAlpha" result="shadowOffsetOuter1"></feOffset>
            <feGaussianBlur stdDeviation="0.5" in="shadowOffsetOuter1" result="shadowBlurOuter1"></feGaussianBlur>
            <feComposite in="shadowBlurOuter1" in2="SourceAlpha" operator="out" result="shadowBlurOuter1"></feComposite>
            <feColorMatrix values="0 0 0 0 0.9375   0 0 0 0 0.9375   0 0 0 0 0.9375  0 0 0 0.5 0" type="matrix" in="shadowBlurOuter1"></feColorMatrix>
        </filter>
        <linearGradient x1="50%" y1="0%" x2="50%" y2="100%" id="linearGradient-4">
            <stop stop-color="#FFFFFF" offset="0%"></stop>
            <stop stop-color="#FAFAFA" offset="100%"></stop>
        </linearGradient>
        <polygon id="path-5" points="17.9928436 0.00238037109 18.9984131 0.00410461426 27.9999414 10.0130031 28 11 18 11"></polygon>
        <filter x="-20.0%" y="-9.1%" width="140.0%" height="136.4%" filterUnits="objectBoundingBox" id="filter-6">
            <feOffset dx="0" dy="1" in="SourceAlpha" result="shadowOffsetOuter1"></feOffset>
            <feGaussianBlur stdDeviation="0.5" in="shadowOffsetOuter1" result="shadowBlurOuter1"></feGaussianBlur>
            <feComposite in="shadowBlurOuter1" in2="SourceAlpha" operator="out" result="shadowBlurOuter1"></feComposite>
            <feColorMatrix values="0 0 0 0 0.937254902   0 0 0 0 0.937254902   0 0 0 0 0.937254902  0 0 0 0.5 0" type="matrix" in="shadowBlurOuter1"></feColorMatrix>
        </filter>
    </defs>
    <g id="图标" stroke="none" stroke-width="1" fill="none" fill-rule="evenodd">
        <g id="PSD" transform="translate(-9.000000, -7.000000)">
            <g id="Group-3" transform="translate(10.000000, 7.000000)">
                <g id="Group-2">
                    <g id="Combined-Shape">
                        <use fill="black" fill-opacity="1" filter="url(#filter-3)" xlink:href="#path-2"></use>
                        <use fill="url(#linearGradient-1)" fill-rule="evenodd" xlink:href="#path-2"></use>
                        <path stroke="#CCCCCC" stroke-width="1" d="M18.5,0.5 L18.5,10 L18.5,10.5 L19,10.5 L27.5,10.5 L27.5,32.0000796 C27.5,32.8257232 26.8266952,33.5 26.0087557,33.5 L1.99124431,33.5 C1.16681741,33.5 0.5,32.8310761 0.5,32.0000796 L0.5,1.9999204 C0.5,1.17427675 1.17330482,0.5 1.99124431,0.5 L18.5,0.5 Z"></path>
                    </g>
                    <g id="Group" transform="translate(3.000000, 4.000000)" fill="#D8D8D8">
                        <rect id="Rectangle-4" x="0" y="2" width="11" height="1"></rect>
                        <rect id="Rectangle-4-Copy-6" x="12" y="2" width="2" height="1"></rect>
                        <rect id="Rectangle-4-Copy-5" x="0" y="0" width="6" height="1"></rect>
                        <rect id="Rectangle-4-Copy" x="0" y="4" width="5" height="1"></rect>
                        <rect id="Rectangle-4-Copy-3" x="7" y="4" width="5" height="1"></rect>
                        <rect id="Rectangle-4-Copy-4" x="13" y="4" width="5" height="1"></rect>
                        <rect id="Rectangle-4-Copy-2" x="0" y="6" width="11" height="1"></rect>
                        <rect id="Rectangle-4-Copy-7" x="0" y="8" width="7" height="1"></rect>
                        <rect id="Rectangle-4-Copy-8" x="9" y="8" width="7" height="1"></rect>
                        <rect id="Rectangle-4-Copy-9" x="0" y="10" width="5" height="1"></rect>
                    </g>
                    <path d="M4.72753906,27 L4.72753906,19.8417969 L7.046875,19.8417969 C7.92578564,19.8417969 8.49869658,19.8776038 8.765625,19.9492188 C9.1757833,20.0566412 9.51920435,20.2902 9.79589844,20.6499023 C10.0725925,21.0096047 10.2109375,21.474281 10.2109375,22.0439453 C10.2109375,22.4834006 10.1311857,22.8528631 9.97167969,23.1523438 C9.81217368,23.4518244 9.60953899,23.6870109 9.36376953,23.8579102 C9.11800007,24.0288094 8.86816533,24.1419268 8.61425781,24.1972656 C8.269204,24.2656253 7.76953452,24.2998047 7.11523438,24.2998047 L6.17285156,24.2998047 L6.17285156,27 L4.72753906,27 Z M6.17285156,21.0527344 L6.17285156,23.0839844 L6.96386719,23.0839844 C7.53353149,23.0839844 7.91438706,23.0465499 8.10644531,22.9716797 C8.29850356,22.8968095 8.44905544,22.7796232 8.55810547,22.6201172 C8.66715549,22.4606112 8.72167969,22.2750662 8.72167969,22.0634766 C8.72167969,21.8030586 8.64518306,21.588217 8.4921875,21.4189453 C8.33919194,21.2496736 8.14550898,21.1438804 7.91113281,21.1015625 C7.73860591,21.0690103 7.39192969,21.0527344 6.87109375,21.0527344 L6.17285156,21.0527344 Z M11.03125,24.6708984 L12.4375,24.5341797 C12.5221358,25.0061873 12.6938464,25.3528635 12.9526367,25.5742188 C13.2114271,25.795574 13.5605447,25.90625 14,25.90625 C14.4654971,25.90625 14.8162423,25.8077809 15.0522461,25.6108398 C15.2882499,25.4138988 15.40625,25.1835951 15.40625,24.9199219 C15.40625,24.7506502 15.3566086,24.6066087 15.2573242,24.487793 C15.1580399,24.3689773 14.9847018,24.2656254 14.7373047,24.1777344 C14.568033,24.1191403 14.1822947,24.0149747 13.5800781,23.8652344 C12.8053347,23.6731761 12.2617203,23.4371759 11.9492188,23.1572266 C11.5097634,22.7633444 11.2900391,22.283206 11.2900391,21.7167969 C11.2900391,21.3522117 11.3933909,21.0112321 11.6000977,20.6938477 C11.8068044,20.3764633 12.104653,20.1347665 12.4936523,19.96875 C12.8826517,19.8027335 13.3522108,19.7197266 13.9023438,19.7197266 C14.8007857,19.7197266 15.4770485,19.9166647 15.9311523,20.3105469 C16.3852562,20.7044291 16.6236978,21.2301399 16.6464844,21.8876953 L15.2011719,21.9511719 C15.1393226,21.5833315 15.0066742,21.3188485 14.8032227,21.1577148 C14.5997711,20.9965812 14.2945984,20.9160156 13.8876953,20.9160156 C13.4677713,20.9160156 13.1389986,21.0022778 12.9013672,21.1748047 C12.7483716,21.2854823 12.671875,21.4335928 12.671875,21.6191406 C12.671875,21.7884123 12.7434889,21.9332676 12.8867188,22.0537109 C13.0690113,22.2067065 13.5117152,22.3662101 14.2148438,22.5322266 C14.9179723,22.698243 15.4379866,22.8699535 15.7749023,23.0473633 C16.1118181,23.224773 16.3754873,23.4672836 16.565918,23.7749023 C16.7563486,24.0825211 16.8515625,24.4625628 16.8515625,24.9150391 C16.8515625,25.3251974 16.7376313,25.7093081 16.5097656,26.0673828 C16.2818999,26.4254575 15.9596375,26.6915681 15.5429688,26.8657227 C15.1263,27.0398772 14.6070995,27.1269531 13.9853516,27.1269531 C13.0803991,27.1269531 12.3854191,26.9178081 11.9003906,26.4995117 C11.4153622,26.0812154 11.1256515,25.4716837 11.03125,24.6708984 Z M18.0625,19.8417969 L20.7041016,19.8417969 C21.2998077,19.8417969 21.7539047,19.8873693 22.0664062,19.9785156 C22.4863302,20.1022142 22.8460271,20.3219385 23.1455078,20.6376953 C23.4449885,20.9534521 23.6728508,21.3400042 23.8291016,21.7973633 C23.9853523,22.2547223 24.0634766,22.8186815 24.0634766,23.4892578 C24.0634766,24.0784535 23.9902351,24.5862609 23.84375,25.0126953 C23.6647126,25.5335312 23.4091813,25.9550765 23.0771484,26.2773438 C22.8264961,26.5214856 22.4879579,26.7119134 22.0615234,26.8486328 C21.7425114,26.9495448 21.3160834,27 20.7822266,27 L18.0625,27 L18.0625,19.8417969 Z M19.5078125,21.0527344 L19.5078125,25.7939453 L20.5869141,25.7939453 C20.9905619,25.7939453 21.2819001,25.7711591 21.4609375,25.7255859 C21.6953137,25.6669919 21.8898104,25.567709 22.0444336,25.4277344 C22.1990568,25.2877597 22.3251948,25.057456 22.4228516,24.7368164 C22.5205083,24.4161768 22.5693359,23.9791694 22.5693359,23.4257812 C22.5693359,22.8723931 22.5205083,22.4475926 22.4228516,22.1513672 C22.3251948,21.8551417 22.1884774,21.6240243 22.0126953,21.4580078 C21.8369132,21.2919914 21.6139336,21.1796878 21.34375,21.1210938 C21.1419261,21.0755206 20.7464222,21.0527344 20.1572266,21.0527344 L19.5078125,21.0527344 Z" id="PSD" fill="#31A2DF"></path>
                    <g id="Rectangle-2">
                        <use fill="black" fill-opacity="1" filter="url(#filter-6)" xlink:href="#path-5"></use>
                        <use fill="url(#linearGradient-4)" fill-rule="evenodd" xlink:href="#path-5"></use>
                        <path stroke="#CCCCCC" stroke-width="1" d="M18.4931697,0.503239012 L18.7752812,0.503722747 L27.4999528,10.2047811 L27.4999703,10.5 L18.4996747,10.5 L18.4931697,0.503239012 Z"></path>
                    </g>
                </g>
            </g>
        </g>
    </g>
</svg>